<svg width="18" height="15" viewBox="0 0 18 15" fill="none" xmlns="http://www.w3.org/2000/svg">
<g clip-path="url(#clip0_586_625)">
<path d="M0.875 1.625C1.35898 1.625 1.75 2.01602 1.75 2.5V9.5H7.875V5.125C7.875 4.64102 8.26602 4.25 8.75 4.25H14.875C16.3242 4.25 17.5 5.42578 17.5 6.875V13C17.5 13.484 17.109 13.875 16.625 13.875C16.141 13.875 15.75 13.484 15.75 13V12.125H9.625H8.75H1.75V13C1.75 13.484 1.35898 13.875 0.875 13.875C0.391016 13.875 0 13.484 0 13V2.5C0 2.01602 0.391016 1.625 0.875 1.625ZM4.8125 4.25C5.39266 4.25 5.94906 4.48047 6.3593 4.8907C6.76953 5.30094 7 5.85734 7 6.4375C7 7.01766 6.76953 7.57406 6.3593 7.9843C5.94906 8.39453 5.39266 8.625 4.8125 8.625C4.23234 8.625 3.67594 8.39453 3.2657 7.9843C2.85547 7.57406 2.625 7.01766 2.625 6.4375C2.625 5.85734 2.85547 5.30094 3.2657 4.8907C3.67594 4.48047 4.23234 4.25 4.8125 4.25Z" fill="#9333EA"/>
</g>
<defs>
<clipPath id="clip0_586_625">
<path d="M0 0.75H17.5V14.75H0V0.75Z" fill="white"/>
</clipPath>
</defs>
</svg>
