<svg width="28" height="28" viewBox="0 0 28 28" fill="none" xmlns="http://www.w3.org/2000/svg">
<path d="M8.16659 24.5C7.52492 24.5 6.97581 24.2717 6.51925 23.8151C6.0627 23.3586 5.83403 22.8091 5.83325 22.1666V9.33331C5.83325 8.69165 6.06192 8.14253 6.51925 7.68598C6.97659 7.22942 7.5257 7.00076 8.16659 6.99998H10.4999V4.66665C10.4999 4.02498 10.7286 3.47587 11.1859 3.01931C11.6433 2.56276 12.1924 2.33409 12.8333 2.33331H15.1666C15.8083 2.33331 16.3578 2.56198 16.8151 3.01931C17.2724 3.47665 17.5007 4.02576 17.4999 4.66665V6.99998H19.8333C20.4749 6.99998 21.0244 7.22865 21.4818 7.68598C21.9391 8.14331 22.1674 8.69242 22.1666 9.33331V22.1666C22.1666 22.8083 21.9383 23.3578 21.4818 23.8151C21.0252 24.2725 20.4757 24.5008 19.8333 24.5C19.8333 24.8305 19.7213 25.1078 19.4973 25.3318C19.2733 25.5558 18.9964 25.6674 18.6666 25.6666C18.3368 25.6659 18.0599 25.5539 17.8359 25.3306C17.6119 25.1074 17.4999 24.8305 17.4999 24.5H10.4999C10.4999 24.8305 10.3879 25.1078 10.1639 25.3318C9.93992 25.5558 9.66303 25.6674 9.33325 25.6666C9.00347 25.6659 8.72659 25.5539 8.50259 25.3306C8.27859 25.1074 8.16659 24.8305 8.16659 24.5ZM10.4999 21H12.8333V10.5H10.4999V21ZM15.1666 21H17.4999V10.5H15.1666V21ZM12.8333 6.99998H15.1666V4.66665H12.8333V6.99998Z" fill="#079BDA"/>
</svg>
