<svg width="25" height="24" viewBox="0 0 25 24" fill="none" xmlns="http://www.w3.org/2000/svg">
<path d="M14.6647 17.5687C14.2803 16.7766 13.7835 16.2 12.9256 16.5516L11.2335 17.1797C9.87877 17.8078 9.20377 17.1797 8.52408 16.2328L5.47721 9.30468C5.09283 8.5125 5.2944 7.76718 6.15221 7.41562L8.5194 6.46875C9.37721 6.1125 9.24127 5.37187 8.8569 4.57968L6.82721 0.801558C6.44283 0.00937033 5.65533 -0.182817 4.79752 0.168745C3.08658 0.876558 1.66158 1.9875 0.742834 3.63281C-0.382166 5.64375 0.180335 8.44218 0.405335 9.61875C0.630334 10.7953 1.41783 12.8578 2.43502 14.9719C3.45221 17.0906 4.34283 18.7547 5.13971 19.6969C5.93658 20.6391 7.84908 23.2172 10.2163 23.7937C12.1569 24.2625 14.2522 23.8687 15.9678 23.1609C16.8303 22.8094 16.8303 22.0641 16.446 21.2672L14.6647 17.5687ZM24.0725 9.225H15.7616L19.4553 5.53125H16.685L12.0678 10.1484L16.685 14.7656H19.4553L15.7616 11.0719H24.0725V9.225Z" fill="white"/>
</svg>
