<svg width="18" height="20" viewBox="0 0 18 20" fill="none" xmlns="http://www.w3.org/2000/svg">
<path d="M17.5 20H0V0H17.5V20Z" stroke="#E5E7EB"/>
<g clip-path="url(#clip0_590_724)">
<path d="M0.875 3.625C1.35898 3.625 1.75 4.01602 1.75 4.5V11.5H7.875V7.125C7.875 6.64102 8.26602 6.25 8.75 6.25H14.875C16.3242 6.25 17.5 7.42578 17.5 8.875V15C17.5 15.484 17.109 15.875 16.625 15.875C16.141 15.875 15.75 15.484 15.75 15V14.125H9.625H8.75H1.75V15C1.75 15.484 1.35898 15.875 0.875 15.875C0.391016 15.875 0 15.484 0 15V4.5C0 4.01602 0.391016 3.625 0.875 3.625ZM4.8125 6.25C5.39266 6.25 5.94906 6.48047 6.3593 6.8907C6.76953 7.30094 7 7.85734 7 8.4375C7 9.01766 6.76953 9.57406 6.3593 9.9843C5.94906 10.3945 5.39266 10.625 4.8125 10.625C4.23234 10.625 3.67594 10.3945 3.2657 9.9843C2.85547 9.57406 2.625 9.01766 2.625 8.4375C2.625 7.85734 2.85547 7.30094 3.2657 6.8907C3.67594 6.48047 4.23234 6.25 4.8125 6.25Z" fill="#D4AF37"/>
</g>
<defs>
<clipPath id="clip0_590_724">
<path d="M0 2.75H17.5V16.75H0V2.75Z" fill="white"/>
</clipPath>
</defs>
</svg>
