<svg width="20" height="13" viewBox="0 0 20 13" fill="none" xmlns="http://www.w3.org/2000/svg">
<path d="M10 0.583252C10.7735 0.583252 11.5154 0.890543 12.0624 1.43752C12.6094 1.98451 12.9167 2.72637 12.9167 3.49992C12.9167 4.27347 12.6094 5.01533 12.0624 5.56231C11.5154 6.10929 10.7735 6.41658 10 6.41658C9.22645 6.41658 8.48459 6.10929 7.93761 5.56231C7.39062 5.01533 7.08333 4.27347 7.08333 3.49992C7.08333 2.72637 7.39062 1.98451 7.93761 1.43752C8.48459 0.890543 9.22645 0.583252 10 0.583252ZM4.16667 2.66659C4.63333 2.66659 5.06667 2.79159 5.44167 3.01659C5.31667 4.20825 5.66667 5.39159 6.38333 6.31659C5.96667 7.11659 5.13333 7.66658 4.16667 7.66658C3.50363 7.66658 2.86774 7.40319 2.3989 6.93435C1.93006 6.46551 1.66667 5.82963 1.66667 5.16658C1.66667 4.50354 1.93006 3.86766 2.3989 3.39882C2.86774 2.92998 3.50363 2.66659 4.16667 2.66659ZM15.8333 2.66659C16.4964 2.66659 17.1323 2.92998 17.6011 3.39882C18.0699 3.86766 18.3333 4.50354 18.3333 5.16658C18.3333 5.82963 18.0699 6.46551 17.6011 6.93435C17.1323 7.40319 16.4964 7.66658 15.8333 7.66658C14.8667 7.66658 14.0333 7.11659 13.6167 6.31659C14.3429 5.37844 14.6801 4.19672 14.5583 3.01659C14.9333 2.79159 15.3667 2.66659 15.8333 2.66659ZM4.58333 11.2083C4.58333 9.48325 7.00833 8.08325 10 8.08325C12.9917 8.08325 15.4167 9.48325 15.4167 11.2083V12.6666H4.58333V11.2083ZM0 12.6666V11.4166C0 10.2583 1.575 9.28325 3.70833 8.99992C3.21667 9.56659 2.91667 10.3499 2.91667 11.2083V12.6666H0ZM20 12.6666H17.0833V11.2083C17.0833 10.3499 16.7833 9.56659 16.2917 8.99992C18.425 9.28325 20 10.2583 20 11.4166V12.6666Z" fill="black"/>
</svg>
