<svg width="32" height="32" viewBox="0 0 32 32" fill="none" xmlns="http://www.w3.org/2000/svg">
<path d="M31.4231 15.984C31.4231 15.63 31.2491 15.3188 30.9843 15.1236L30.9899 15.114L27.2603 12.9608L29.4071 9.24239L29.3999 9.23799C29.4676 9.08471 29.4983 8.91766 29.4895 8.75033C29.4807 8.58301 29.4326 8.4201 29.3491 8.27479C29.2649 8.12972 29.1477 8.00654 29.0069 7.91523C28.8662 7.82391 28.706 7.76703 28.5391 7.74919V7.73879H24.2319V3.44399H24.2231C24.2051 3.2774 24.1482 3.11738 24.0569 2.97688C23.9656 2.83637 23.8425 2.71932 23.6975 2.63519C23.5521 2.55132 23.3888 2.50307 23.2211 2.49438C23.0535 2.48569 22.8861 2.51681 22.7327 2.58519L22.7275 2.57599L18.9351 4.76559L16.8351 1.12799L16.8275 1.13239C16.7286 0.997132 16.5993 0.887042 16.45 0.811022C16.3006 0.735002 16.1355 0.695187 15.9679 0.694794C15.6139 0.694794 15.3023 0.868793 15.1075 1.13359L15.0979 1.12799L12.9631 4.82559L9.28715 2.70319L9.28275 2.71079C9.12947 2.64311 8.96241 2.61244 8.79509 2.62126C8.62776 2.63009 8.46486 2.67816 8.31955 2.76159C8.17441 2.84579 8.05115 2.96301 7.95976 3.10374C7.86837 3.24447 7.81143 3.40475 7.79355 3.57159H7.78275V7.84119H3.53795V7.84959C3.37135 7.86761 3.21134 7.92458 3.07083 8.01588C2.93033 8.10719 2.81328 8.23028 2.72915 8.37519C2.64565 8.52064 2.59758 8.6837 2.58882 8.85117C2.58006 9.01865 2.61087 9.18584 2.67875 9.33919L2.66955 9.34479L4.76795 12.9796L1.01035 15.1492L1.01475 15.1568C0.879487 15.2557 0.769397 15.385 0.693377 15.5344C0.617357 15.6837 0.577541 15.8488 0.577148 16.0164C0.577148 16.3704 0.751148 16.682 1.01595 16.8768L1.01035 16.8864L4.73995 19.0396L2.59315 22.758L2.60035 22.762C2.53266 22.9153 2.50199 23.0823 2.51082 23.2497C2.51964 23.417 2.56772 23.5799 2.65115 23.7252C2.7354 23.8703 2.85263 23.9934 2.99336 24.0848C3.13408 24.1761 3.29434 24.233 3.46115 24.2508V24.2616H7.76795V28.556H7.77675C7.81355 28.8824 7.99635 29.188 8.30235 29.3648C8.44792 29.4484 8.61114 29.4964 8.77877 29.5051C8.9464 29.5138 9.11372 29.4829 9.26715 29.4148L9.27235 29.424L13.0647 27.2344L15.1647 30.872L15.1723 30.8676C15.2713 31.0029 15.4006 31.1129 15.5499 31.189C15.6993 31.265 15.8644 31.3048 16.0319 31.3052C16.3859 31.3052 16.6975 31.1312 16.8923 30.8668L16.9015 30.872L19.0363 27.1744L22.7127 29.2968L22.7171 29.2892C22.8704 29.3569 23.0375 29.3875 23.2048 29.3787C23.3721 29.3699 23.535 29.3218 23.6803 29.2384C23.8255 29.1542 23.9488 29.037 24.0401 28.8962C24.1315 28.7555 24.1885 28.5952 24.2063 28.4284H24.2171V24.1592H28.4623V24.1508C28.6289 24.1328 28.789 24.0758 28.9295 23.9845C29.07 23.8932 29.187 23.7701 29.2711 23.6252C29.3547 23.4797 29.4028 23.3166 29.4116 23.149C29.4203 22.9815 29.3895 22.8142 29.3215 22.6608L29.3307 22.6556L27.2323 19.0208L30.9899 16.8512L30.9855 16.8436C31.1208 16.7447 31.2309 16.6153 31.3069 16.466C31.3829 16.3167 31.4228 16.1516 31.4231 15.984ZM13.4859 20.542L9.54755 18.802L11.2855 21.812L10.3031 22.3792L7.63835 17.7644L8.64835 17.1808L12.4603 18.8456L10.7863 15.9464L11.7691 15.3792L14.4331 19.994L13.4859 20.542ZM15.3467 19.4676L12.6823 14.8524L15.9483 12.9672L16.4475 13.832L14.1639 15.15L14.7231 16.1188L16.9579 14.8288L17.4571 15.6928L15.2223 16.9836L15.8295 18.0352L18.1131 16.7172L18.6123 17.582L15.3467 19.4676ZM22.9091 15.1016L20.2699 12.4L21.2967 16.032L20.2523 16.6352L16.2663 12.7836L17.3663 12.1484L20.1015 15.0156L19.0547 11.1736L19.8227 10.7304L22.6199 13.562L21.5039 9.75959L22.6039 9.12439L23.9539 14.4988L22.9091 15.1016Z" fill="#FEE13D"/>
</svg>
