<svg width="17" height="26" viewBox="0 0 17 26" fill="none" xmlns="http://www.w3.org/2000/svg">
<path d="M7.01302 6.33301C7.19094 6.33301 7.36157 6.40575 7.48737 6.53524C7.61318 6.66473 7.68386 6.84036 7.68386 7.02348V7.71396H10.3672C10.9009 7.71396 11.4128 7.9322 11.7902 8.32067C12.1677 8.70914 12.3797 9.23601 12.3797 9.78539V13.9282C12.3797 14.4776 12.1677 15.0045 11.7902 15.393C11.4128 15.7814 10.9755 16.1531 10.4417 16.1531H3.58432C3.05057 16.1531 2.61322 15.7814 2.2358 15.393C1.85838 15.0045 1.64635 14.4776 1.64635 13.9282V9.78539C1.64635 9.23601 1.85838 8.70914 2.2358 8.32067C2.61322 7.9322 3.12511 7.71396 3.65885 7.71396H6.34219V7.02348C6.34219 6.84036 6.41287 6.66473 6.53867 6.53524C6.66448 6.40575 6.83511 6.33301 7.01302 6.33301ZM2.2358 17.9944C1.70205 17.9944 1.27155 18.2893 0.894135 18.6778C0.516718 19.0663 0.304688 19.5932 0.304688 20.1425V20.6259C0.304688 22.428 1.10969 23.733 2.38964 24.5519C3.63068 25.346 5.28227 25.6663 7.01302 25.6663C8.75316 25.6663 10.4048 25.3473 11.6445 24.5519C12.9244 23.733 13.7214 22.4252 13.7214 20.6259V20.1425C13.7214 19.5932 13.5093 19.0663 13.1319 18.6778C12.7545 18.2893 12.223 17.9944 11.6893 17.9944H2.2358ZM5.00052 12.8925C5.2674 12.8925 5.52334 12.7834 5.71205 12.5892C5.90076 12.3949 6.00677 12.1315 6.00677 11.8568C6.00677 11.5821 5.90076 11.3187 5.71205 11.1245C5.52334 10.9302 5.2674 10.8211 5.00052 10.8211C4.73365 10.8211 4.4777 10.9302 4.289 11.1245C4.10029 11.3187 3.99427 11.5821 3.99427 11.8568C3.99427 12.1315 4.10029 12.3949 4.289 12.5892C4.4777 12.7834 4.73365 12.8925 5.00052 12.8925ZM10.0318 11.8568C10.0318 11.5821 9.92576 11.3187 9.73705 11.1245C9.54834 10.9302 9.2924 10.8211 9.02552 10.8211C8.75865 10.8211 8.5027 10.9302 8.314 11.1245C8.12529 11.3187 8.01927 11.5821 8.01927 11.8568C8.01927 12.1315 8.12529 12.3949 8.314 12.5892C8.5027 12.7834 8.75865 12.8925 9.02552 12.8925C9.2924 12.8925 9.54834 12.7834 9.73705 12.5892C9.92576 12.3949 10.0318 12.1315 10.0318 11.8568Z" fill="#031EAA"/>
<g clip-path="url(#clip0_732_2621)">
<path fill-rule="evenodd" clip-rule="evenodd" d="M12.0411 0.483261C12.0561 0.43957 12.0836 0.401775 12.1199 0.375051C12.1563 0.348328 12.1997 0.333984 12.2441 0.333984C12.2886 0.333984 12.332 0.348328 12.3683 0.375051C12.4047 0.401775 12.4322 0.43957 12.4472 0.483261L12.6042 0.945636C12.615 0.977199 12.6323 1.00587 12.655 1.02955C12.6777 1.05323 12.7052 1.07132 12.7354 1.08251L13.1789 1.24639C13.2207 1.262 13.257 1.29074 13.2826 1.32867C13.3082 1.3666 13.3219 1.41186 13.3219 1.45826C13.3219 1.50466 13.3082 1.54992 13.2826 1.58785C13.257 1.62578 13.2207 1.65452 13.1789 1.67014L12.7354 1.83401C12.7052 1.8452 12.6777 1.8633 12.655 1.88698C12.6323 1.91066 12.615 1.93932 12.6042 1.97089L12.4472 2.43326C12.4322 2.47695 12.4047 2.51475 12.3683 2.54147C12.332 2.56819 12.2886 2.58254 12.2441 2.58254C12.1997 2.58254 12.1563 2.56819 12.1199 2.54147C12.0836 2.51475 12.0561 2.47695 12.0411 2.43326L11.884 1.97051C11.8733 1.93895 11.856 1.91028 11.8333 1.8866C11.8106 1.86292 11.7831 1.84483 11.7529 1.83364L11.3098 1.67014C11.2679 1.65452 11.2317 1.62578 11.2061 1.58785C11.1805 1.54992 11.1667 1.50466 11.1667 1.45826C11.1667 1.41186 11.1805 1.3666 11.2061 1.32867C11.2317 1.29074 11.2679 1.262 11.3098 1.24639L11.7532 1.08251C11.7835 1.07132 11.811 1.05323 11.8336 1.02955C11.8563 1.00587 11.8737 0.977199 11.8844 0.945636L12.0411 0.483261ZM13.6816 0.989511C13.6816 0.914919 13.71 0.843382 13.7606 0.790638C13.8111 0.737893 13.8797 0.708261 13.9512 0.708261H15.8379C16.1238 0.708261 16.3981 0.826788 16.6002 1.03777C16.8024 1.24874 16.916 1.53489 16.916 1.83326V4.08326C16.916 4.38163 16.8024 4.66778 16.6002 4.87876C16.3981 5.08974 16.1238 5.20826 15.8379 5.20826H12.6262L11.626 6.25076C11.5883 6.29004 11.5403 6.31679 11.4881 6.32762C11.4358 6.33845 11.3817 6.33289 11.3324 6.31162C11.2832 6.29035 11.2411 6.25434 11.2115 6.20814C11.1819 6.16193 11.1661 6.1076 11.166 6.05201V2.86451C11.166 2.78992 11.1944 2.71838 11.245 2.66564C11.2955 2.61289 11.3641 2.58326 11.4355 2.58326C11.507 2.58326 11.5756 2.61289 11.6261 2.66564C11.6767 2.71838 11.7051 2.78992 11.7051 2.86451V5.37326L12.3243 4.72826L12.4033 4.64576H15.8379C15.9809 4.64576 16.118 4.5865 16.2191 4.48101C16.3202 4.37552 16.377 4.23245 16.377 4.08326V1.83326C16.377 1.68408 16.3202 1.541 16.2191 1.43551C16.118 1.33002 15.9809 1.27076 15.8379 1.27076H13.9512C13.8797 1.27076 13.8111 1.24113 13.7606 1.18839C13.71 1.13564 13.6816 1.0641 13.6816 0.989511ZM14.2099 2.15126C14.1973 2.11506 14.1744 2.08379 14.1441 2.06169C14.1139 2.03959 14.0779 2.02773 14.041 2.02773C14.0041 2.02773 13.9681 2.03959 13.9379 2.06169C13.9077 2.08379 13.8847 2.11506 13.8721 2.15126L13.7409 2.53714C13.732 2.56342 13.7176 2.58729 13.6987 2.60701C13.6798 2.62674 13.6569 2.64181 13.6317 2.65114L13.2623 2.78764C13.2274 2.8007 13.1973 2.82466 13.1761 2.85623C13.1548 2.88781 13.1434 2.92547 13.1434 2.96407C13.1434 3.00268 13.1548 3.04034 13.1761 3.07191C13.1973 3.10349 13.2274 3.12745 13.2623 3.14051L13.6317 3.27739C13.6569 3.28671 13.6798 3.30179 13.6987 3.32151C13.7176 3.34123 13.732 3.3651 13.7409 3.39139L13.8718 3.77689C13.8842 3.81334 13.9071 3.84488 13.9375 3.86718C13.9678 3.88949 14.0039 3.90146 14.041 3.90146C14.0781 3.90146 14.1143 3.88949 14.1446 3.86718C14.1749 3.84488 14.1978 3.81334 14.2103 3.77689L14.3411 3.39139C14.35 3.3651 14.3645 3.34123 14.3834 3.32151C14.4023 3.30179 14.4252 3.28671 14.4503 3.27739L14.8198 3.14051C14.8546 3.12745 14.8847 3.10349 14.906 3.07191C14.9272 3.04034 14.9387 3.00268 14.9387 2.96407C14.9387 2.92547 14.9272 2.88781 14.906 2.85623C14.8847 2.82466 14.8546 2.8007 14.8198 2.78764L14.4507 2.65076C14.4255 2.64143 14.4026 2.62636 14.3837 2.60664C14.3648 2.58692 14.3504 2.56305 14.3415 2.53676L14.2106 2.15089L14.2099 2.15126Z" fill="#031EAA"/>
</g>
<defs>
<clipPath id="clip0_732_2621">
<rect width="5.75" height="6" fill="white" transform="translate(11.166 0.333008)"/>
</clipPath>
</defs>
</svg>
