<svg width="32" height="32" viewBox="0 0 32 32" fill="none" xmlns="http://www.w3.org/2000/svg">
<path d="M4 15.3335C4 14.8031 4.21071 14.2944 4.58579 13.9193C4.96086 13.5442 5.46957 13.3335 6 13.3335C6.53043 13.3335 7.03914 13.5442 7.41421 13.9193C7.78929 14.2944 8 14.8031 8 15.3335V18.6668H24V15.3335C24 14.8031 24.2107 14.2944 24.5858 13.9193C24.9609 13.5442 25.4696 13.3335 26 13.3335C26.5304 13.3335 27.0391 13.5442 27.4142 13.9193C27.7893 14.2944 28 14.8031 28 15.3335V22.0002C28 22.5306 27.7893 23.0393 27.4142 23.4144C27.0391 23.7894 26.5304 24.0002 26 24.0002H6C5.46957 24.0002 4.96086 23.7894 4.58579 23.4144C4.21071 23.0393 4 22.5306 4 22.0002V15.3335Z" fill="#B8B4FF"/>
<path d="M7.3335 10C7.3335 9.46957 7.54421 8.96086 7.91928 8.58579C8.29436 8.21071 8.80306 8 9.3335 8H22.6668C23.1973 8 23.706 8.21071 24.081 8.58579C24.4561 8.96086 24.6668 9.46957 24.6668 10V12.2773C24.0722 12.5368 23.5663 12.9642 23.211 13.507C22.8558 14.0499 22.6666 14.6846 22.6668 15.3333V17.3333H9.3335V15.3333C9.33368 14.6846 9.14455 14.0499 8.78929 13.507C8.43403 12.9642 7.92809 12.5368 7.3335 12.2773V10Z" fill="#B8B4FF"/>
</svg>
