<svg width="21" height="21" viewBox="0 0 21 21" fill="none" xmlns="http://www.w3.org/2000/svg">
<mask id="mask0_74_735" style="mask-type:alpha" maskUnits="userSpaceOnUse" x="0" y="0" width="21" height="21">
<rect width="20.9653" height="20.9653" fill="#D9D9D9"/>
</mask>
<g mask="url(#mask0_74_735)">
<path d="M14.8504 17.471L14.8504 3.49418C15.3308 3.49418 15.7421 3.66525 16.0843 4.00739C16.4264 4.34953 16.5975 4.76083 16.5975 5.24128V15.7239C16.5975 16.2044 16.4264 16.6157 16.0843 16.9578C15.7421 17.2999 15.3308 17.471 14.8504 17.471ZM3.49418 19.2181C3.01372 19.2181 2.60242 19.0471 2.26028 18.7049C1.91814 18.3628 1.74707 17.9515 1.74707 17.471L1.74707 3.49418C1.74707 3.01372 1.91814 2.60242 2.26028 2.26028C2.60242 1.91814 3.01372 1.74707 3.49418 1.74707L11.3561 1.74707C11.8366 1.74707 12.2479 1.91814 12.59 2.26028C12.9322 2.60242 13.1033 3.01372 13.1033 3.49418L13.1033 17.471C13.1033 17.9515 12.9322 18.3628 12.59 18.7049C12.2479 19.0471 11.8366 19.2181 11.3561 19.2181H3.49418ZM18.3446 15.7239V5.24128C18.7085 5.24128 19.0179 5.36867 19.2727 5.62346C19.5275 5.87825 19.6549 6.18763 19.6549 6.55161V14.4136C19.6549 14.7776 19.5275 15.0869 19.2727 15.3417C19.0179 15.5965 18.7085 15.7239 18.3446 15.7239ZM3.49418 17.471H11.3561L11.3561 3.49418L3.49418 3.49418L3.49418 17.471Z" fill="white"/>
</g>
</svg>
