<svg width="20" height="21" viewBox="0 0 20 21" fill="none" xmlns="http://www.w3.org/2000/svg">
<g clip-path="url(#clip0_463_4471)">
<path d="M10 20.5C12.6522 20.5 15.1957 19.4464 17.0711 17.5711C18.9464 15.6957 20 13.1522 20 10.5C20 7.84784 18.9464 5.3043 17.0711 3.42893C15.1957 1.55357 12.6522 0.5 10 0.5C7.34784 0.5 4.8043 1.55357 2.92893 3.42893C1.05357 5.3043 0 7.84784 0 10.5C0 13.1522 1.05357 15.6957 2.92893 17.5711C4.8043 19.4464 7.34784 20.5 10 20.5ZM9.0625 13.9375V11.4375H6.5625C6.04297 11.4375 5.625 11.0195 5.625 10.5C5.625 9.98047 6.04297 9.5625 6.5625 9.5625H9.0625V7.0625C9.0625 6.54297 9.48047 6.125 10 6.125C10.5195 6.125 10.9375 6.54297 10.9375 7.0625V9.5625H13.4375C13.957 9.5625 14.375 9.98047 14.375 10.5C14.375 11.0195 13.957 11.4375 13.4375 11.4375H10.9375V13.9375C10.9375 14.457 10.5195 14.875 10 14.875C9.48047 14.875 9.0625 14.457 9.0625 13.9375Z" fill="#010088"/>
</g>
<defs>
<clipPath id="clip0_463_4471">
<path d="M0 0.5H20V20.5H0V0.5Z" fill="white"/>
</clipPath>
</defs>
</svg>
