<svg width="16" height="17" viewBox="0 0 16 17" fill="none" xmlns="http://www.w3.org/2000/svg">
<g clip-path="url(#clip0_395_3322)">
<path d="M8 4C8.9665 4 9.75 3.2165 9.75 2.25C9.75 1.2835 8.9665 0.5 8 0.5C7.0335 0.5 6.25 1.2835 6.25 2.25C6.25 3.2165 7.0335 4 8 4Z" fill="black"/>
<path d="M9.5 4.5H6.5C5.97005 4.50157 5.46225 4.71278 5.08752 5.08752C4.71278 5.46225 4.50157 5.97005 4.5 6.5V9.86C4.5 10.1991 4.76344 10.4875 5.10219 10.4997C5.18614 10.5028 5.26984 10.4889 5.3483 10.4589C5.42676 10.4288 5.49837 10.3833 5.55884 10.325C5.61931 10.2667 5.6674 10.1968 5.70025 10.1195C5.73309 10.0422 5.75001 9.95901 5.75 9.875V6.75844C5.7492 6.69394 5.77282 6.63153 5.81612 6.58371C5.85941 6.5359 5.91918 6.50622 5.98344 6.50063C6.01763 6.49835 6.05193 6.50314 6.0842 6.51468C6.11647 6.52623 6.14602 6.54428 6.17102 6.56772C6.19602 6.59117 6.21593 6.6195 6.22952 6.65097C6.2431 6.68243 6.25008 6.71635 6.25 6.75063V15.7812C6.25 15.9719 6.32573 16.1547 6.46052 16.2895C6.59531 16.4243 6.77813 16.5 6.96875 16.5C7.15937 16.5 7.34219 16.4243 7.47698 16.2895C7.61177 16.1547 7.6875 15.9719 7.6875 15.7812V11.3231C7.68639 11.2424 7.71582 11.1643 7.76989 11.1044C7.82396 11.0444 7.89867 11.0072 7.97906 11C8.02183 10.9971 8.06473 11.0031 8.10509 11.0175C8.14545 11.0319 8.18242 11.0545 8.2137 11.0838C8.24497 11.1131 8.26988 11.1485 8.28688 11.1879C8.30387 11.2272 8.3126 11.2696 8.3125 11.3125V15.7812C8.3125 15.9719 8.38823 16.1547 8.52302 16.2895C8.65781 16.4243 8.84063 16.5 9.03125 16.5C9.22187 16.5 9.40469 16.4243 9.53948 16.2895C9.67427 16.1547 9.75 15.9719 9.75 15.7812V6.75844C9.74921 6.69394 9.77282 6.63153 9.81612 6.58371C9.85941 6.5359 9.91918 6.50622 9.98344 6.50063C10.0176 6.49835 10.0519 6.50314 10.0842 6.51468C10.1165 6.52623 10.146 6.54428 10.171 6.56772C10.196 6.59117 10.2159 6.6195 10.2295 6.65097C10.2431 6.68243 10.2501 6.71635 10.25 6.75063V9.86063C10.25 10.1997 10.5134 10.4881 10.8522 10.5003C10.9362 10.5034 11.0199 10.4895 11.0984 10.4594C11.177 10.4294 11.2486 10.3838 11.3091 10.3254C11.3695 10.267 11.4176 10.1971 11.4504 10.1197C11.4832 10.0423 11.5001 9.95906 11.5 9.875V6.5C11.4984 5.97005 11.2872 5.46225 10.9125 5.08752C10.5377 4.71278 10.03 4.50157 9.5 4.5Z" fill="black"/>
</g>
<defs>
<clipPath id="clip0_395_3322">
<rect width="16" height="16" fill="white" transform="translate(0 0.5)"/>
</clipPath>
</defs>
</svg>
