<svg width="28" height="28" viewBox="0 0 28 28" fill="none" xmlns="http://www.w3.org/2000/svg">
<path d="M1.75 21.5832V4.6665M1.75 21.5832C1.75 21.5832 1.75 25.0832 0 25.0832M1.75 21.5832H26.25M26.25 21.5832C26.25 21.5832 26.25 25.0832 28 25.0832M26.25 21.5832V15.1665C26.25 14.0835 25.8198 13.0449 25.054 12.2792C24.2882 11.5134 23.2496 11.0832 22.1667 11.0832H12.25V15.7498M1.75 18.0832H26.25M9.91667 13.2998C9.91667 13.2998 8.75 15.1665 7.29167 15.1665C6.75018 15.1665 6.23088 14.9514 5.84799 14.5685C5.4651 14.1856 5.25 13.6663 5.25 13.1248C5.25 11.9978 6.16467 11.0878 7.29167 11.0878C8.75 11.0878 9.91667 12.9498 9.91667 12.9498V13.2998Z" stroke="#000C7A"/>
</svg>
