<svg width="18" height="21" viewBox="0 0 18 21" fill="none" xmlns="http://www.w3.org/2000/svg">
<g clip-path="url(#clip0_453_4209)">
<g clip-path="url(#clip1_453_4209)">
<path d="M5 0.5C5.69141 0.5 6.25 1.05859 6.25 1.75V3H11.25V1.75C11.25 1.05859 11.8086 0.5 12.5 0.5C13.1914 0.5 13.75 1.05859 13.75 1.75V3H15.625C16.6602 3 17.5 3.83984 17.5 4.875V6.75H0V4.875C0 3.83984 0.839844 3 1.875 3H3.75V1.75C3.75 1.05859 4.30859 0.5 5 0.5ZM0 8H17.5V18.625C17.5 19.6602 16.6602 20.5 15.625 20.5H1.875C0.839844 20.5 0 19.6602 0 18.625V8ZM12.8516 12.4141C13.2188 12.0469 13.2188 11.4531 12.8516 11.0898C12.4844 10.7266 11.8906 10.7227 11.5273 11.0898L7.81641 14.8008L5.98047 12.9648C5.61328 12.5977 5.01953 12.5977 4.65625 12.9648C4.29297 13.332 4.28906 13.9258 4.65625 14.2891L7.15625 16.7891C7.52344 17.1562 8.11719 17.1562 8.48047 16.7891L12.8516 12.4141Z" fill="#031EAA"/>
</g>
</g>
<defs>
<clipPath id="clip0_453_4209">
<rect width="17.5" height="20" fill="white" transform="translate(0 0.5)"/>
</clipPath>
<clipPath id="clip1_453_4209">
<path d="M0 0.5H17.5V20.5H0V0.5Z" fill="white"/>
</clipPath>
</defs>
</svg>
