<svg width="10" height="10" viewBox="0 0 10 10" fill="none" xmlns="http://www.w3.org/2000/svg">
<path d="M9.75694 3.46429L7.22222 6.07143V10C6.91657 10 7.08333 10 6.66667 10C6.25 10 6.5162 10 6.25 10C5.9838 10 6.66667 10 6.66667 9.85714C6.66667 9.85714 6.66667 10 7.22222 10H5.27778H4.72222H2.77778C3.75 10 4.07986 9.51786 3.88889 9.71429C3.69792 9.91072 4.0162 10 3.75 10C3.4838 10 3.47222 10 3.19444 10C3.00347 9.80357 3.19444 10 2.77778 10V6.07143L0.243056 3.46429C0.0810185 3.29762 0 3.09524 0 2.85714C0 2.61905 0.0810185 2.41667 0.243056 2.25C0.41088 2.08333 0.609086 2 0.837674 2C1.06626 2 1.26157 2.08333 1.42361 2.25L3.40278 4.28571H6.59722L8.57639 2.25C8.73843 2.08333 8.93519 2 9.16667 2C9.39815 2 9.59491 2.08333 9.75694 2.25C9.91898 2.42262 10 2.62649 10 2.86161C10 3.09673 9.91898 3.29762 9.75694 3.46429ZM6.94444 2C6.94444 2.55357 6.75492 3.0253 6.37587 3.41518C5.99682 3.80506 5.53819 4 5 4C4.46181 4 4.00318 3.80506 3.62413 3.41518C3.24508 3.0253 3.05556 2.55357 3.05556 2C3.05556 1.44643 3.24508 0.974702 3.62413 0.584821C4.00318 0.19494 4.46181 0 5 0C5.53819 0 5.99682 0.19494 6.37587 0.584821C6.75492 0.974702 6.94444 1.44643 6.94444 2Z" fill="black"/>
</svg>
