<svg width="10" height="17" viewBox="0 0 10 17" fill="none" xmlns="http://www.w3.org/2000/svg">
<g clip-path="url(#clip0_395_3332)">
<path d="M2.99998 2.5C2.99998 1.96957 3.2107 1.46086 3.58577 1.08579C3.96084 0.710714 4.46955 0.5 4.99998 0.5C5.53042 0.5 6.03912 0.710714 6.4142 1.08579C6.78927 1.46086 6.99998 1.96957 6.99998 2.5C6.99998 3.03043 6.78927 3.53914 6.4142 3.91421C6.03912 4.28929 5.53042 4.5 4.99998 4.5C4.46955 4.5 3.96084 4.28929 3.58577 3.91421C3.2107 3.53914 2.99998 3.03043 2.99998 2.5ZM4.49998 12.5V15.5C4.49998 16.0531 4.05311 16.5 3.49998 16.5C2.94686 16.5 2.49998 16.0531 2.49998 15.5V9.49375L1.84686 10.5312C1.55311 11 0.934357 11.1375 0.468732 10.8438C0.00310719 10.55 -0.140643 9.93437 0.153107 9.46875L1.39998 7.49062C2.17811 6.25 3.53748 5.5 4.99998 5.5C6.46248 5.5 7.82186 6.25 8.59998 7.4875L9.84686 9.46875C10.1406 9.9375 9.99998 10.5531 9.53436 10.8469C9.06873 11.1406 8.44998 11 8.15623 10.5344L7.49998 9.49375V15.5C7.49998 16.0531 7.05311 16.5 6.49998 16.5C5.94686 16.5 5.49998 16.0531 5.49998 15.5V12.5H4.49998Z" fill="black"/>
</g>
<defs>
<clipPath id="clip0_395_3332">
<rect width="10" height="16" fill="white" transform="translate(0 0.5)"/>
</clipPath>
</defs>
</svg>
