<svg width="16" height="16" viewBox="0 0 16 16" fill="none" xmlns="http://www.w3.org/2000/svg">
<path d="M11.666 6.66675C11.1327 6.66675 10.666 6.20008 10.666 5.66675C10.666 5.13341 11.1327 4.66675 11.666 4.66675C12.1993 4.66675 12.666 5.13341 12.666 5.66675C12.666 6.20008 12.1993 6.66675 11.666 6.66675ZM9.99935 4.00008L5.33268 8.66675L8.66602 12.0001L13.3327 7.33342V4.00008H9.99935ZM9.99935 2.66675H13.3327C14.066 2.66675 14.666 3.26675 14.666 4.00008V7.33342C14.666 7.73341 14.5327 8.06675 14.266 8.26675L9.59935 12.9334C9.39935 13.2001 9.06602 13.3334 8.66602 13.3334C8.26602 13.3334 7.93268 13.2001 7.73268 12.9334L4.39935 9.60008C4.13268 9.33341 3.99935 9.00008 3.99935 8.66675C3.99935 8.26675 4.13268 7.93341 4.39935 7.73342L9.06602 3.06675C9.26602 2.80008 9.59935 2.66675 9.99935 2.66675ZM6.99935 3.80008L6.33268 3.13341L1.73268 7.73342C1.46602 8.00008 1.33268 8.33342 1.33268 8.66675C1.33268 9.00008 1.46602 9.40008 1.73268 9.60008L5.33268 13.2001L5.99935 12.5334L2.19935 8.66675L6.99935 3.80008Z" fill="#16A34A"/>
</svg>
