<svg width="18" height="21" viewBox="0 0 18 21" fill="none" xmlns="http://www.w3.org/2000/svg">
<g clip-path="url(#clip0_453_4397)">
<g clip-path="url(#clip1_453_4397)">
<path d="M8.75 10.5C10.0761 10.5 11.3479 9.97322 12.2855 9.03553C13.2232 8.09785 13.75 6.82608 13.75 5.5C13.75 4.17392 13.2232 2.90215 12.2855 1.96447C11.3479 1.02678 10.0761 0.5 8.75 0.5C7.42392 0.5 6.15215 1.02678 5.21447 1.96447C4.27678 2.90215 3.75 4.17392 3.75 5.5C3.75 6.82608 4.27678 8.09785 5.21447 9.03553C6.15215 9.97322 7.42392 10.5 8.75 10.5ZM6.96484 12.375C3.11719 12.375 0 15.4922 0 19.3398C0 19.9805 0.519531 20.5 1.16016 20.5H16.3398C16.9805 20.5 17.5 19.9805 17.5 19.3398C17.5 15.4922 14.3828 12.375 10.5352 12.375H6.96484Z" fill="#010088"/>
</g>
</g>
<defs>
<clipPath id="clip0_453_4397">
<rect width="17.5" height="20" fill="white" transform="translate(0 0.5)"/>
</clipPath>
<clipPath id="clip1_453_4397">
<path d="M0 0.5H17.5V20.5H0V0.5Z" fill="white"/>
</clipPath>
</defs>
</svg>
