<svg width="21" height="16" viewBox="0 0 21 16" fill="none" xmlns="http://www.w3.org/2000/svg">
<g clip-path="url(#clip0_453_4245)">
<path d="M5.04688 0C5.70992 0 6.3458 0.263392 6.81464 0.732233C7.28348 1.20107 7.54688 1.83696 7.54688 2.5C7.54688 3.16304 7.28348 3.79893 6.81464 4.26777C6.3458 4.73661 5.70992 5 5.04688 5C4.38383 5 3.74795 4.73661 3.27911 4.26777C2.81027 3.79893 2.54688 3.16304 2.54688 2.5C2.54688 1.83696 2.81027 1.20107 3.27911 0.732233C3.74795 0.263392 4.38383 0 5.04688 0ZM16.5469 0C17.2099 0 17.8458 0.263392 18.3146 0.732233C18.7835 1.20107 19.0469 1.83696 19.0469 2.5C19.0469 3.16304 18.7835 3.79893 18.3146 4.26777C17.8458 4.73661 17.2099 5 16.5469 5C15.8838 5 15.2479 4.73661 14.7791 4.26777C14.3103 3.79893 14.0469 3.16304 14.0469 2.5C14.0469 1.83696 14.3103 1.20107 14.7791 0.732233C15.2479 0.263392 15.8838 0 16.5469 0ZM0.546875 9.33438C0.546875 7.49375 2.04062 6 3.88125 6H5.21562C5.7125 6 6.18437 6.10938 6.60938 6.30312C6.56875 6.52812 6.55 6.7625 6.55 7C6.55 8.19375 7.075 9.26562 7.90312 10C7.89687 10 7.89062 10 7.88125 10H1.2125C0.846875 10 0.546875 9.7 0.546875 9.33438ZM13.2125 10C13.2062 10 13.2 10 13.1906 10C14.0219 9.26562 14.5437 8.19375 14.5437 7C14.5437 6.7625 14.5219 6.53125 14.4844 6.30312C14.9094 6.10625 15.3813 6 15.8781 6H17.2125C19.0531 6 20.5469 7.49375 20.5469 9.33438C20.5469 9.70312 20.2469 10 19.8813 10H13.2125ZM7.54688 7C7.54688 6.20435 7.86295 5.44129 8.42555 4.87868C8.98816 4.31607 9.75123 4 10.5469 4C11.3425 4 12.1056 4.31607 12.6682 4.87868C13.2308 5.44129 13.5469 6.20435 13.5469 7C13.5469 7.79565 13.2308 8.55871 12.6682 9.12132C12.1056 9.68393 11.3425 10 10.5469 10C9.75123 10 8.98816 9.68393 8.42555 9.12132C7.86295 8.55871 7.54688 7.79565 7.54688 7ZM4.54688 15.1656C4.54688 12.8656 6.4125 11 8.7125 11H12.3813C14.6813 11 16.5469 12.8656 16.5469 15.1656C16.5469 15.625 16.175 16 15.7125 16H5.38125C4.92188 16 4.54688 15.6281 4.54688 15.1656Z" fill="#031EAA"/>
</g>
<defs>
<clipPath id="clip0_453_4245">
<path d="M0.546875 0H20.5469V16H0.546875V0Z" fill="white"/>
</clipPath>
</defs>
</svg>
