<svg width="18" height="22" viewBox="0 0 18 22" fill="none" xmlns="http://www.w3.org/2000/svg">
<path d="M9 5.1875C8.2954 5.1875 7.60663 5.39644 7.02078 5.78789C6.43493 6.17934 5.97832 6.73573 5.70868 7.38669C5.43904 8.03765 5.36849 8.75395 5.50595 9.44501C5.64341 10.1361 5.98271 10.7708 6.48093 11.2691C6.97916 11.7673 7.61393 12.1066 8.30499 12.244C8.99605 12.3815 9.71235 12.311 10.3633 12.0413C11.0143 11.7717 11.5707 11.3151 11.9621 10.7292C12.3536 10.1434 12.5625 9.4546 12.5625 8.75C12.5625 7.80517 12.1872 6.89903 11.5191 6.23093C10.851 5.56283 9.94483 5.1875 9 5.1875ZM9 11.1875C8.51791 11.1875 8.04664 11.0445 7.6458 10.7767C7.24495 10.5089 6.93253 10.1282 6.74804 9.68279C6.56356 9.2374 6.51528 8.7473 6.60934 8.27447C6.70339 7.80164 6.93554 7.36732 7.27643 7.02643C7.61732 6.68554 8.05164 6.45339 8.52447 6.35934C8.9973 6.26528 9.4874 6.31356 9.93279 6.49804C10.3782 6.68253 10.7589 6.99495 11.0267 7.3958C11.2945 7.79664 11.4375 8.26791 11.4375 8.75C11.4375 9.39647 11.1807 10.0165 10.7236 10.4736C10.2665 10.9307 9.64647 11.1875 9 11.1875ZM9 0.6875C6.86245 0.689981 4.81317 1.54022 3.30169 3.05169C1.79022 4.56317 0.939981 6.61245 0.9375 8.75C0.9375 11.6478 2.28188 14.7256 4.82531 17.6506C5.97328 18.9773 7.26529 20.1722 8.6775 21.2131C8.77203 21.2793 8.88462 21.3148 9 21.3148C9.11538 21.3148 9.22797 21.2793 9.3225 21.2131C10.7347 20.1722 12.0267 18.9773 13.1747 17.6506C15.7181 14.7256 17.0625 11.6506 17.0625 8.75C17.06 6.61245 16.2098 4.56317 14.6983 3.05169C13.1868 1.54022 11.1375 0.689981 9 0.6875ZM9 20.0478C7.59375 18.9622 2.0625 14.3394 2.0625 8.75C2.0625 6.91006 2.79341 5.14548 4.09445 3.84445C5.39548 2.54341 7.16006 1.8125 9 1.8125C10.8399 1.8125 12.6045 2.54341 13.9056 3.84445C15.2066 5.14548 15.9375 6.91006 15.9375 8.75C15.9375 14.3394 10.4062 18.9622 9 20.0478Z" fill="black"/>
</svg>
