<svg width="28" height="28" viewBox="0 0 28 28" fill="none" xmlns="http://www.w3.org/2000/svg">
<path d="M7.3815 22.1667C7.21661 22.1667 7.07817 22.1107 6.96617 21.9987C6.85417 21.8867 6.79817 21.7478 6.79817 21.5822C6.79817 21.4165 6.85417 21.2781 6.96617 21.1668C7.07817 21.0556 7.21661 21 7.3815 21H20.6185C20.7842 21 20.9226 21.056 21.0338 21.168C21.1451 21.28 21.2011 21.4188 21.2018 21.5845C21.2026 21.7502 21.1466 21.8886 21.0338 21.9998C20.9211 22.1111 20.7826 22.1667 20.6185 22.1667H7.3815ZM8.288 18.802C7.82911 18.802 7.42933 18.6581 7.08867 18.3703C6.748 18.0826 6.52944 17.717 6.433 17.2737L5.04 9.8875C5.00111 9.90306 4.95756 9.91161 4.90933 9.91317C4.86033 9.9155 4.81639 9.91667 4.7775 9.91667C4.41117 9.91667 4.10667 9.79222 3.864 9.54333C3.62133 9.29444 3.5 8.99267 3.5 8.638C3.5 8.27011 3.62172 7.95744 3.86517 7.7C4.10783 7.44333 4.41272 7.315 4.77983 7.315C5.14694 7.315 5.45922 7.44333 5.71667 7.7C5.97333 7.95744 6.10167 8.27011 6.10167 8.638C6.10167 8.71889 6.09856 8.79394 6.09233 8.86317C6.08611 8.93239 6.06317 9.00083 6.0235 9.0685L9.2435 10.3647C9.39283 10.4246 9.54255 10.4323 9.69267 10.388C9.842 10.3429 9.96878 10.2531 10.073 10.1185L13.2253 5.8485C13.0566 5.73806 12.9228 5.59183 12.824 5.40983C12.7252 5.22861 12.6758 5.033 12.6758 4.823C12.6758 4.45589 12.8046 4.14361 13.062 3.88617C13.3187 3.62872 13.6309 3.5 13.9988 3.5C14.3659 3.5 14.6786 3.62833 14.9368 3.885C15.1951 4.14167 15.3242 4.45278 15.3242 4.81833C15.3242 5.03922 15.2748 5.23833 15.176 5.41567C15.0772 5.59456 14.9434 5.73883 14.7747 5.8485L17.927 10.1185C18.0312 10.2531 18.158 10.3425 18.3073 10.3868C18.4574 10.4327 18.6072 10.4257 18.7565 10.3658L21.9765 9.0685C21.9555 9.00628 21.9372 8.93822 21.9217 8.86433C21.9061 8.78967 21.8983 8.71422 21.8983 8.638C21.8983 8.27011 22.0197 7.95744 22.2623 7.7C22.505 7.44333 22.8099 7.315 23.177 7.315C23.5441 7.315 23.8564 7.44333 24.1138 7.7C24.3713 7.95744 24.5 8.27011 24.5 8.638C24.5 8.99111 24.3709 9.2925 24.1127 9.54217C23.8544 9.79183 23.541 9.91667 23.1723 9.91667C23.1428 9.91667 23.1093 9.912 23.072 9.90267C23.0347 9.89333 22.9934 9.88828 22.9483 9.8875L21.567 17.2725C21.4698 17.7174 21.2512 18.0833 20.9113 18.3703C20.5714 18.6573 20.1717 18.8012 19.712 18.802H8.288Z" fill="#FDDF7B"/>
</svg>
