<svg width="20" height="20" viewBox="0 0 20 20" fill="none" xmlns="http://www.w3.org/2000/svg">
<g clip-path="url(#clip0_47_2163)">
<path d="M14.878 0.281996L15.226 1.353C15.334 1.67886 15.5168 1.97492 15.7597 2.2175C16.0027 2.46008 16.299 2.64244 16.625 2.75L17.696 3.098L17.717 3.104C17.7996 3.13307 17.8711 3.18707 17.9218 3.25854C17.9724 3.33001 17.9995 3.41542 17.9995 3.503C17.9995 3.59057 17.9724 3.67598 17.9218 3.74745C17.8711 3.81892 17.7996 3.87292 17.717 3.902L16.646 4.25C16.32 4.35755 16.0237 4.53991 15.7807 4.78249C15.5378 5.02507 15.355 5.32113 15.247 5.647L14.899 6.717C14.8699 6.7996 14.8159 6.87114 14.7445 6.92175C14.673 6.97236 14.5876 6.99954 14.5 6.99954C14.4124 6.99954 14.327 6.97236 14.2555 6.92175C14.1841 6.87114 14.1301 6.7996 14.101 6.717L13.752 5.647C13.6448 5.3204 13.4626 5.02347 13.22 4.78C12.9772 4.53605 12.6806 4.35247 12.354 4.244L11.283 3.896C11.2004 3.86692 11.1289 3.81292 11.0782 3.74145C11.0276 3.66998 11.0005 3.58457 11.0005 3.497C11.0005 3.40942 11.0276 3.32401 11.0782 3.25254C11.1289 3.18107 11.2004 3.12707 11.283 3.098L12.354 2.75C12.6759 2.63953 12.9679 2.45587 13.2068 2.21346C13.4458 1.97105 13.6252 1.6765 13.731 1.353L14.079 0.282996C14.1079 0.200044 14.1618 0.128136 14.2334 0.0772498C14.305 0.0263636 14.3907 -0.000976563 14.4785 -0.000976562C14.5663 -0.000976562 14.652 0.0263636 14.7236 0.0772498C14.7952 0.128136 14.8491 0.199044 14.878 0.281996ZM19.783 8.21399L19.017 7.966C18.7846 7.88829 18.5734 7.75757 18.4002 7.58419C18.227 7.41081 18.0965 7.19951 18.019 6.967L17.769 6.203C17.7483 6.14393 17.7098 6.09275 17.6587 6.05655C17.6076 6.02034 17.5466 6.00089 17.484 6.00089C17.4214 6.00089 17.3604 6.02034 17.3093 6.05655C17.2583 6.09275 17.2197 6.14393 17.199 6.203L16.951 6.967C16.8749 7.19802 16.7466 7.40836 16.5759 7.58164C16.4052 7.75491 16.1968 7.88645 15.967 7.966L15.202 8.21399C15.1434 8.23515 15.0927 8.27387 15.0569 8.32487C15.0211 8.37587 15.0019 8.43668 15.0019 8.49899C15.0019 8.56131 15.0211 8.62212 15.0569 8.67312C15.0927 8.72412 15.1434 8.76284 15.202 8.784L15.967 9.033C16.2001 9.11074 16.4119 9.24179 16.5855 9.41573C16.7591 9.58968 16.8897 9.80171 16.967 10.035L17.215 10.799C17.2357 10.8581 17.2742 10.9092 17.3253 10.9454C17.3764 10.9817 17.4374 11.0011 17.5 11.0011C17.5626 11.0011 17.6236 10.9817 17.6747 10.9454C17.7258 10.9092 17.7643 10.8581 17.785 10.799L18.034 10.035C18.1116 9.80238 18.2422 9.59101 18.4156 9.41762C18.589 9.24422 18.8004 9.11357 19.033 9.036L19.798 8.788C19.8566 8.76684 19.9073 8.72812 19.9431 8.67712C19.9789 8.62612 19.9981 8.56531 19.9981 8.503C19.9981 8.44068 19.9789 8.37987 19.9431 8.32887C19.9073 8.27787 19.8566 8.23915 19.798 8.218L19.783 8.21399ZM17.502 12C17.2424 11.9995 16.9886 11.923 16.772 11.78C16.5 12.814 15.9948 13.772 15.2952 14.5805C14.5956 15.389 13.7202 16.0266 12.736 16.4444C11.7518 16.8623 10.6851 17.0492 9.61746 16.9908C8.54987 16.9325 7.50981 16.6305 6.577 16.108L6.49 16.069L6.399 16.048C6.33627 16.0394 6.27247 16.0428 6.211 16.058L3.187 16.812L3.943 13.792L3.957 13.697C3.96225 13.6022 3.9404 13.5078 3.894 13.425C3.29253 12.3531 2.98388 11.1418 2.99908 9.91283C3.01428 8.68384 3.35281 7.48052 3.98061 6.42388C4.60842 5.36723 5.50337 4.49451 6.57547 3.89348C7.64757 3.29245 8.85902 2.98429 10.088 3C10.1606 2.804 10.2757 2.62646 10.4248 2.48004C10.574 2.33363 10.7537 2.22196 10.951 2.153L11.167 2.083C10.0299 1.91532 8.86995 1.99466 7.76624 2.3156C6.66253 2.63655 5.64094 3.19156 4.77102 3.94285C3.90111 4.69414 3.20331 5.62407 2.72513 6.66931C2.24695 7.71456 1.99963 8.85057 2 10L2.007 10.346L2.033 10.728C2.12458 11.734 2.40587 12.7136 2.862 13.615L2.925 13.735L2.015 17.379L2.001 17.462V17.544C2.00735 17.6161 2.02926 17.6859 2.06522 17.7486C2.10117 17.8114 2.15032 17.8656 2.20926 17.9075C2.2682 17.9495 2.33554 17.9781 2.40662 17.9915C2.47771 18.0048 2.55085 18.0026 2.621 17.985L6.266 17.075L6.386 17.139C7.45486 17.6798 8.63148 17.9737 9.82908 17.9991C11.0267 18.0245 12.2147 17.7808 13.3055 17.2858C14.3964 16.7909 15.3622 16.0574 16.1318 15.1394C16.9013 14.2215 17.455 13.1425 17.752 11.982C17.6691 11.9932 17.5856 11.9992 17.502 12Z" fill="white"/>
</g>
<defs>
<clipPath id="clip0_47_2163">
<rect width="20" height="20" fill="white"/>
</clipPath>
</defs>
</svg>
