<svg width="24" height="24" viewBox="0 0 24 24" fill="none" xmlns="http://www.w3.org/2000/svg">
<path d="M6 21.5H12H18M16.7369 19.7095L19 22.5M7.17791 19.7095L5 22.5M10.2579 4.1585C9.12391 4.181 7.381 4.207 6 5.141V9.7325L12.1529 9.7345M13.7419 4.1585C14.8759 4.181 16.6185 4.2185 18 5.141V9.7325H12.1509M11.9999 9.7345V5.7895M4.63091 17.1015H19.3689M10.7719 3.3555H13.2279C13.5589 3.3555 13.8254 3.6235 13.7989 4.0355L11.9979 5.893L10.1999 4.0355C10.1734 3.6235 10.4399 3.3555 10.7699 3.3555H10.7719ZM8.70091 14.5695C8.70091 14.8772 8.57869 15.1722 8.36115 15.3897C8.14361 15.6073 7.84856 15.7295 7.54091 15.7295C7.23325 15.7295 6.9382 15.6073 6.72066 15.3897C6.50312 15.1722 6.38091 14.8772 6.38091 14.5695C6.38091 14.2618 6.50312 13.9668 6.72066 13.7493C6.9382 13.5317 7.23325 13.4095 7.54091 13.4095C7.84856 13.4095 8.14361 13.5317 8.36115 13.7493C8.57869 13.9668 8.70091 14.2618 8.70091 14.5695ZM17.6209 14.5695C17.6209 14.8772 17.4987 15.1722 17.2812 15.3897C17.0636 15.6073 16.7686 15.7295 16.4609 15.7295C16.1533 15.7295 15.8582 15.6073 15.6407 15.3897C15.4231 15.1722 15.3009 14.8772 15.3009 14.5695C15.3009 14.2618 15.4231 13.9668 15.6407 13.7493C15.8582 13.5317 16.1533 13.4095 16.4609 13.4095C16.7686 13.4095 17.0636 13.5317 17.2812 13.7493C17.4987 13.9668 17.6209 14.2618 17.6209 14.5695ZM4.63091 17.1055C4.99341 18.1525 5.53191 18.982 6.43141 19.7075H17.5704C18.4699 18.982 19.0064 18.1505 19.3709 17.1055V3.8465C17.5949 2.715 14.8779 2.25 12.0019 2.25C9.12191 2.25 6.40291 2.7165 4.62891 3.8465L4.63091 17.1055Z" stroke="black" stroke-width="1.1" stroke-linecap="round" stroke-linejoin="round"/>
</svg>
